<?xml version="1.0" encoding="utf-8"?>
<!-- Generator: Adobe Illustrator 23.0.5, SVG Export Plug-In . SVG Version: 6.00 Build 0)  -->
<svg version="1.1" id="Layer_1" xmlns="http://www.w3.org/2000/svg" xmlns:xlink="http://www.w3.org/1999/xlink" x="0px" y="0px"
	 viewBox="0 0 15 15" style="enable-background:new 0 0 15 15;" xml:space="preserve">
<style type="text/css">
	.st0{fill:#FFFFFF;}
</style>
<g>
	<path class="st0" d="M11.59,5.74c-0.04,0.12-0.13,0.2-0.21,0.29C10.19,7.22,9,8.41,7.81,9.59C7.65,9.75,7.47,9.79,7.3,9.69
		C7.26,9.66,7.23,9.63,7.2,9.6C5.98,8.39,4.76,7.17,3.55,5.96C3.33,5.74,3.4,5.46,3.57,5.34c0.06-0.04,0.12-0.07,0.19-0.07
		c0.03,0,0.06,0,0.1,0c2.43,0,4.86,0,7.29,0c0.18,0,0.32,0.06,0.4,0.22c0.02,0.03,0.03,0.07,0.04,0.1
		C11.59,5.64,11.59,5.69,11.59,5.74z"/>
</g>
</svg>
