<?xml version="1.0" encoding="utf-8"?>
<!-- Generator: Adobe Illustrator 23.0.5, SVG Export Plug-In . SVG Version: 6.00 Build 0)  -->
<svg version="1.1" id="Layer_1" xmlns="http://www.w3.org/2000/svg" xmlns:xlink="http://www.w3.org/1999/xlink" x="0px" y="0px"
	 viewBox="0 0 15 15" style="enable-background:new 0 0 15 15;" xml:space="preserve">
<style type="text/css">
	.st0{fill:#FFFFFF;}
</style>
<g>
	<path class="st0" d="M3.41,9.26c0.04-0.12,0.13-0.2,0.21-0.29C4.81,7.78,6,6.59,7.19,5.41C7.35,5.25,7.53,5.21,7.7,5.31
		C7.74,5.34,7.77,5.37,7.8,5.4c1.22,1.22,2.43,2.43,3.65,3.65c0.22,0.22,0.14,0.49-0.02,0.62c-0.06,0.04-0.12,0.07-0.19,0.07
		c-0.03,0-0.06,0-0.1,0c-2.43,0-4.86,0-7.29,0c-0.18,0-0.32-0.06-0.4-0.22c-0.02-0.03-0.03-0.07-0.04-0.1
		C3.41,9.36,3.41,9.31,3.41,9.26z"/>
</g>
</svg>
